<?xml version="1.0" encoding="UTF-8"?>
<svg version="1.1" xmlns="http://www.w3.org/2000/svg" width="500" height="500">
<path d="M0 0 C4.5459173 0.92125117 7.55063693 3.25696558 11.25 5.9375 C12.22453125 6.62102539 12.22453125 6.62102539 13.21875 7.31835938 C14.85312724 8.49092203 16.43195244 9.74011152 18 11 C18 11.66 18 12.32 18 13 C18.65355469 13.21140625 19.30710937 13.4228125 19.98046875 13.640625 C24.13537032 15.51113696 27.6263296 18.09154817 31.3125 20.75 C32.03373047 21.26304688 32.75496094 21.77609375 33.49804688 22.3046875 C35.67402744 23.85812295 37.83702705 25.42852201 40 27 C40.75587402 27.53560547 41.51174805 28.07121094 42.29052734 28.62304688 C43.37454834 29.40518555 43.37454834 29.40518555 44.48046875 30.203125 C45.13297607 30.66879883 45.7854834 31.13447266 46.45776367 31.61425781 C48 33 48 33 49 36 C48.34 36 47.68 36 47 36 C46.62875 37.06347656 46.62875 37.06347656 46.25 38.1484375 C44.84929273 41.34380095 43.09045554 43.83516412 41 46.625 C38.93950544 49.39000188 36.91310101 52.13034848 35 55 C34.34 55 33.68 55 33 55 C32.60361328 56.09248047 32.60361328 56.09248047 32.19921875 57.20703125 C30.99270071 60.01699998 29.59979984 62.21309175 27.8125 64.6875 C27.18601562 65.56277344 26.55953125 66.43804687 25.9140625 67.33984375 C25.28242188 68.21769531 24.65078125 69.09554687 24 70 C22.89355819 71.58174428 21.78937713 73.16507247 20.6875 74.75 C18.59960001 77.73679087 16.49475969 80.71046051 14.37109375 83.671875 C13.91710205 84.30512695 13.46311035 84.93837891 12.99536133 85.59082031 C12.09418531 86.84633367 11.19171486 88.1009191 10.2878418 89.35449219 C7.96350388 92.56521905 7.96350388 92.56521905 6 96 C5.34 96 4.68 96 4 96 C3.690625 96.78375 3.38125 97.5675 3.0625 98.375 C2 101 2 101 1 103 C0.34 103 -0.32 103 -1 103 C-1.2578125 103.72316406 -1.515625 104.44632812 -1.78125 105.19140625 C-3.0608104 108.14013679 -4.57030912 110.37116931 -6.5 112.9375 C-9.66663853 117.2016017 -12.79532363 121.48554266 -15.875 125.8125 C-16.73176895 127.01302217 -17.5885398 128.213543 -18.4453125 129.4140625 C-20.08875727 131.71936391 -21.72911591 134.02681577 -23.3671875 136.3359375 C-28.13469633 143.04663887 -32.97785251 149.69572314 -37.875 156.3125 C-42.88975167 163.0895031 -47.80568622 169.92595878 -52.64501953 176.82910156 C-57.65590081 183.96524679 -62.8158481 190.98914891 -68 198 C-65.31089006 200.81803987 -62.59019674 203.11841623 -59.375 205.3125 C-58.50488281 205.910625 -57.63476562 206.50875 -56.73828125 207.125 C-55.38283203 208.053125 -55.38283203 208.053125 -54 209 C-52.18616022 210.26892035 -50.37360918 211.53968535 -48.5625 212.8125 C-46.05732965 214.56973827 -43.54634077 216.30243949 -41 218 C-41 218.66 -41 219.32 -41 220 C-39.97712891 220.3403125 -39.97712891 220.3403125 -38.93359375 220.6875 C-35.26996135 222.32662182 -32.24231234 224.59102617 -29.0625 227 C-27.72977845 227.99431012 -26.39642998 228.98778041 -25.0625 229.98046875 C-24.38832031 230.48368652 -23.71414062 230.9869043 -23.01953125 231.50537109 C-19.89691762 233.81637697 -16.73111364 236.06520109 -13.5625 238.3125 C-8.65202678 241.80326695 -3.79684767 245.35439577 1 249 C0.37443222 252.4135921 -0.90922489 254.57836656 -2.9375 257.375 C-3.55753906 258.23867188 -4.17757812 259.10234375 -4.81640625 259.9921875 C-5.53699219 260.98476563 -6.25757813 261.97734375 -7 263 C-8.34168042 264.86628912 -9.680462 266.73461672 -11.01782227 268.60400391 C-11.91340333 269.85514305 -12.81098708 271.10485139 -13.71069336 272.35302734 C-16.03598186 275.56433531 -16.03598186 275.56433531 -18 279 C-18.66 279 -19.32 279 -20 279 C-20.226875 279.680625 -20.45375 280.36125 -20.6875 281.0625 C-22.31615981 284.70759576 -24.31094535 288.03166668 -27 291 C-27.99 291.33 -28.98 291.66 -30 292 C-32.3632729 290.6432518 -34.48791953 289.27224649 -36.6875 287.6875 C-37.29400391 287.27048828 -37.90050781 286.85347656 -38.52539062 286.42382812 C-40.06015375 285.34137989 -41.53570872 284.17602851 -43 283 C-43 282.34 -43 281.68 -43 281 C-43.67804688 280.77957031 -44.35609375 280.55914062 -45.0546875 280.33203125 C-48.85850281 278.61173812 -51.84608675 276.2453786 -55.125 273.6875 C-61.1246346 269.0913214 -67.23421689 264.725583 -73.5 260.5 C-80.16640741 255.9940024 -86.66314656 251.32844137 -93.06884766 246.46020508 C-100.57078772 240.77306842 -108.28086866 235.38664268 -116 230 C-117.72920759 228.79172524 -119.45838136 227.58340206 -121.1875 226.375 C-121.9403125 225.8490625 -122.693125 225.323125 -123.46875 224.78125 C-128.42297064 221.29494659 -133.34528328 217.7637165 -138.27099609 214.23730469 C-141.17919588 212.15614732 -144.08971815 210.07824448 -147 208 C-146.45847059 203.69097309 -144.99702129 201.23935021 -142.375 197.8125 C-141.65183594 196.85085938 -140.92867188 195.88921875 -140.18359375 194.8984375 C-139.46300781 193.94195312 -138.74242187 192.98546875 -138 192 C-136.80377123 190.31867634 -135.61578288 188.63144863 -134.4375 186.9375 C-133.86902344 186.12152344 -133.30054688 185.30554688 -132.71484375 184.46484375 C-132.14894531 183.65144531 -131.58304688 182.83804688 -131 182 C-129.25903098 179.51123221 -127.51657441 177.02357084 -125.76953125 174.5390625 C-124.52391643 172.75175646 -123.29347523 170.95382742 -122.07421875 169.1484375 C-121.45160156 168.23320312 -120.82898438 167.31796875 -120.1875 166.375 C-119.62417969 165.53710938 -119.06085938 164.69921875 -118.48046875 163.8359375 C-117.74763672 162.92714844 -117.74763672 162.92714844 -117 162 C-116.34 162 -115.68 162 -115 162 C-114.731875 161.27425781 -114.46375 160.54851562 -114.1875 159.80078125 C-113.01329619 157.03135976 -111.6605676 154.69080566 -110 152.1875 C-109.484375 151.39730469 -108.96875 150.60710937 -108.4375 149.79296875 C-107.7259375 148.90544922 -107.7259375 148.90544922 -107 148 C-106.34 148 -105.68 148 -105 148 C-104.73960937 147.27296875 -104.47921875 146.5459375 -104.2109375 145.796875 C-102.96148834 142.91105049 -101.51682472 140.7564682 -99.625 138.25 C-96.11567921 133.52664391 -92.69268422 128.75411071 -89.3125 123.9375 C-84.30618584 116.81552313 -79.22641209 109.74926421 -74.10083008 102.71264648 C-73.57900146 101.99407471 -73.05717285 101.27550293 -72.51953125 100.53515625 C-72.05651611 99.899729 -71.59350098 99.26430176 -71.11645508 98.60961914 C-69.9336064 96.98579218 -69.9336064 96.98579218 -69 95 C-68.34 95 -67.68 95 -67 95 C-66.731875 94.27425781 -66.46375 93.54851562 -66.1875 92.80078125 C-65.01329619 90.03135976 -63.6605676 87.69080566 -62 85.1875 C-61.484375 84.39730469 -60.96875 83.60710937 -60.4375 82.79296875 C-59.963125 82.20128906 -59.48875 81.60960937 -59 81 C-58.34 81 -57.68 81 -57 81 C-56.62875 79.93652344 -56.62875 79.93652344 -56.25 78.8515625 C-54.84929273 75.65619905 -53.09045554 73.16483588 -51 70.375 C-48.93950544 67.60999812 -46.91310101 64.86965152 -45 62 C-44.34 62 -43.68 62 -43 62 C-42.731875 61.27425781 -42.46375 60.54851562 -42.1875 59.80078125 C-41.01329619 57.03135976 -39.6605676 54.69080566 -38 52.1875 C-37.484375 51.39730469 -36.96875 50.60710937 -36.4375 49.79296875 C-35.963125 49.20128906 -35.48875 48.60960937 -35 48 C-34.34 48 -33.68 48 -33 48 C-32.7421875 47.27683594 -32.484375 46.55367187 -32.21875 45.80859375 C-30.9391896 42.85986321 -29.42969088 40.62883069 -27.5 38.0625 C-24.39571203 33.88257904 -21.32839666 29.68153207 -18.3125 25.4375 C-12.25013535 16.92821915 -6.12401802 8.46495932 0 0 Z " fill="#000000" transform="translate(243,86)"/>
<path d="M0 0 C0.96189987 -0.00233999 0.96189987 -0.00233999 1.94323206 -0.00472724 C4.10748195 -0.0087388 6.27166258 -0.00554702 8.43591309 -0.00241089 C9.98121685 -0.00376486 11.52652029 -0.00554477 13.07182312 -0.00772095 C17.28038251 -0.01229576 21.4889175 -0.01050553 25.69747734 -0.00734186 C30.09193871 -0.00481851 34.48639793 -0.00715573 38.88085938 -0.00872803 C46.26200742 -0.0105498 53.64314547 -0.00814323 61.02429199 -0.00338745 C69.57042126 0.00205518 78.11652667 0.00029253 86.66265535 -0.00521386 C93.9866241 -0.00974478 101.31058565 -0.01039564 108.63455534 -0.00777519 C113.0147818 -0.0062123 117.39499703 -0.00601897 121.77522278 -0.00931168 C125.89226211 -0.01219009 130.00927055 -0.01021525 134.12630653 -0.00441742 C135.64169068 -0.00308966 137.15707741 -0.0034842 138.67246056 -0.00568008 C140.73244103 -0.00839099 142.79232094 -0.00501124 144.85229492 0 C146.0078463 0.00037703 147.16339767 0.00075405 148.35396576 0.0011425 C150.92614746 0.12698364 150.92614746 0.12698364 151.92614746 1.12698364 C152.02597804 3.11455392 152.05695499 5.10565884 152.05895996 7.09573364 C152.06024902 8.30616333 152.06153809 9.51659302 152.06286621 10.76370239 C152.05899902 12.03858521 152.05513184 13.31346802 152.05114746 14.62698364 C152.05501465 15.90186646 152.05888184 17.17674927 152.06286621 18.49026489 C152.06093262 20.30590942 152.06093262 20.30590942 152.05895996 22.15823364 C152.05783203 23.27778442 152.0567041 24.39733521 152.05554199 25.55081177 C151.92614746 28.12698364 151.92614746 28.12698364 150.92614746 29.12698364 C148.88853559 29.22376603 146.84751034 29.24885329 144.80760193 29.24723816 C144.16154623 29.24809258 143.51549053 29.24894701 142.84985739 29.24982733 C140.66944929 29.25148388 138.48911691 29.24595793 136.30871582 29.24050903 C134.75193788 29.24022717 133.19515982 29.24038487 131.63838196 29.24095154 C127.39889542 29.24123956 123.15943692 29.2353421 118.91995692 29.22837758 C114.49433327 29.22214479 110.06870903 29.2215403 105.64308167 29.22035217 C97.25660768 29.21723863 88.87014666 29.20902494 80.4836784 29.19900268 C70.93849397 29.18784224 61.39330894 29.18233127 51.84811962 29.17730725 C32.20745498 29.16684235 12.56680204 29.14924247 -7.07385254 29.12698364 C-7.24502283 27.05461481 -7.41282932 24.98196797 -7.57922363 22.90921021 C-7.67303314 21.75503601 -7.76684265 20.60086182 -7.86349487 19.41171265 C-8.11489607 15.48609004 -8.0023388 11.79769802 -7.69885254 7.87698364 C-7.60861816 6.61370239 -7.51838379 5.35042114 -7.42541504 4.04885864 C-6.80960498 -1.06920714 -4.71194511 0.00153738 0 0 Z " fill="#010101" transform="translate(272.0738525390625,350.8730163574219)"/>
</svg>
